<svg height="512pt" preserveAspectRatio="xMidYMid meet" viewBox="0 0 512 512" width="512pt" xmlns="http://www.w3.org/2000/svg"><path d="m0 2560v-2560h2560 2560v2560 2560h-2560-2560zm3462 352c515-1021 940-1865 944-1875 6-16-13-17-347-15l-354 3-96 196c-93 189-96 198-88 240 13 71 10 289-6 380-36 210-135 402-287 562l-55 58 24 97c34 136 43 357 18 468-68 310-302 505-625 521-263 14-497-95-629-292-108-162-143-346-106-571 8-49 24-121 35-158l21-67-69-73c-87-92-142-173-198-290-65-138-85-220-91-371-4-98-1-144 10-188l15-57-120-230-120-230h-315c-260 0-314 2-311 14 5 22 1803 3735 1808 3735 3 0 427-835 942-1857zm-766 164c66-30 132-95 164-161 20-41 24-66 24-135 0-111-32-188-110-260-66-60-133-84-229-84-88 1-153 28-217 91-132 130-139 351-14 476 40 41 115 82 173 97 56 14 149 3 209-24zm47-909c198-72 358-266 388-470 19-126-16-287-87-398-202-321-617-368-885-100-329 329-170 883 282 986 88 20 218 12 302-18z" transform="matrix(.1 0 0 -.1 0 512)"/></svg>